<svg width="26" height="28" viewBox="0 0 26 28" fill="none" xmlns="http://www.w3.org/2000/svg">
<path d="M25.1886 4.02961H19.1063V3.07977C19.1063 1.38158 17.6639 0 15.8909 0H10.1091C8.33611 0 6.89367 1.38158 6.89367 3.07977V4.02961H0.811373C0.36061 4.02961 0 4.375 0 4.80674C0 5.23849 0.36061 5.58388 0.811373 5.58388H2.27785V23.8438C2.27785 26.1349 4.22515 28 6.6172 28H19.3828C21.7748 28 23.7221 26.1349 23.7221 23.8438V5.58388H25.1886C25.6394 5.58388 26 5.23849 26 4.80674C26 4.375 25.6394 4.02961 25.1886 4.02961ZM8.51641 3.07977C8.51641 2.23931 9.23162 1.55428 10.1091 1.55428H15.8909C16.7684 1.55428 17.4836 2.23931 17.4836 3.07977V4.02961H8.51641V3.07977ZM22.0994 23.8438C22.0994 25.2771 20.8793 26.4457 19.3828 26.4457H6.6172C5.12067 26.4457 3.9006 25.2771 3.9006 23.8438V5.58388H22.1054V23.8438H22.0994Z" fill="#2C2C2C"/>
<path d="M13 23.6595C13.4508 23.6595 13.8114 23.3141 13.8114 22.8824V9.14721C13.8114 8.71546 13.4508 8.37007 13 8.37007C12.5492 8.37007 12.1886 8.71546 12.1886 9.14721V22.8766C12.1886 23.3084 12.5492 23.6595 13 23.6595Z" fill="#2C2C2C"/>
<path d="M7.70503 22.8018C8.1558 22.8018 8.51641 22.4564 8.51641 22.0247V9.99918C8.51641 9.56744 8.1558 9.22204 7.70503 9.22204C7.25427 9.22204 6.89366 9.56744 6.89366 9.99918V22.0247C6.89366 22.4564 7.26028 22.8018 7.70503 22.8018Z" fill="#2C2C2C"/>
<path d="M18.295 22.8018C18.7457 22.8018 19.1063 22.4564 19.1063 22.0247V9.99918C19.1063 9.56744 18.7457 9.22204 18.295 9.22204C17.8442 9.22204 17.4836 9.56744 17.4836 9.99918V22.0247C17.4836 22.4564 17.8442 22.8018 18.295 22.8018Z" fill="#2C2C2C"/>
</svg>
